# AST/ASF file generated using VICON BodyLanguage
# -----------------------------------------------
:version 1.10
:name VICON
:units
  mass 1.0
  length 0.45
  angle deg
:documentation
   .ast/.asf automatically generated from VICON data using
   VICON BodyBuilder and BodyLanguage model FoxedUp or BRILLIANT.MOD
:root
   order TX TY TZ RX RY RZ
   axis XYZ
   position 0 0 0  
   orientation 0 0 0 
:bonedata
  begin
     id 1 
     name lhipjoint
     direction 0.573633 -0.743009 0.344793 
     length 2.46257 
     axis 0 0 0  XYZ
  end
  begin
     id 2 
     name lfemur
     direction 0.34202 -0.939693 0  
     length 7.3842  
     axis 0 0 20  XYZ
    dof rx ry rz
    limits (-160.0 20.0)
           (-70.0 70.0)
           (-60.0 70.0)
  end
  begin
     id 3 
     name ltibia
     direction 0.34202 -0.939693 0   
     length 7.50407   
     axis 0 0 20   XYZ
    dof rx
    limits (-10.0 170.0)
  end
  begin
     id 4 
     name lfoot
     direction 0.110749 -0.304281 0.946123   
     length 1.95925   
     axis -90 7.62852e-016 20   XYZ
    dof rx rz
    limits (-45.0 90.0)
           (-70.0 20.0)
  end
  begin
     id 5 
     name ltoes
     direction 1.53554e-011 -4.21843e-011 1   
     length 0.978318   
     axis -90 7.62852e-016 20   XYZ
    dof rx
    limits (-90.0 20.0)
  end
  begin
     id 6 
     name rhipjoint
     direction -0.488109 -0.791693 0.367385   
     length 2.31113  
     axis 0 0 0  XYZ 
  end
  begin
     id 7 
     name rfemur
     direction -0.34202 -0.939693 0   
     length 7.40965   
     axis 0 0 -20   XYZ
    dof rx ry rz
    limits (-160.0 20.0)
           (-70.0 70.0)
           (-70.0 60.0)
  end
  begin
     id 8 
     name rtibia
     direction -0.34202 -0.939693 0   
     length 7.55548   
     axis 0 0 -20   XYZ
    dof rx
    limits (-10.0 170.0)
 end
 begin
     id 9 
     name rfoot
     direction -0.127594 -0.350561 0.927808   
     length 2.07199  
     axis -90 -7.62852e-016 -20   XYZ
    dof rx rz
    limits (-45.0 90.0)
           (-20.0 70.0)
  end
  begin
     id 10 
     name rtoes
     direction -1.53542e-011 -4.21909e-011 1   
     length 1.02667   
     axis -90 -7.62852e-016 -20   XYZ
    dof rx
    limits (-90.0 20.0)
  end
  begin
     id 11 
     name lowerback
     direction -0.0103342 0.997298 -0.0727278   
     length 2.02836   
     axis 0 0 0   XYZ
    dof rx ry rz
    limits (-20.0 45.0)
           (-30.0 30.0)
           (-30.0 30.0)
  end
  begin
     id 12 
     name upperback
     direction 0.0171146 0.999786 -0.011606   
     length 2.03179   
     axis 0 0 0   XYZ
    dof rx ry rz
    limits (-20.0 45.0)
           (-30.0 30.0)
           (-30.0 30.0)
  end
  begin
     id 13 
     name thorax
     direction 0.0216927 0.999513 0.0224343   
     length 2.03882   
     axis 0 0 0   XYZ
    dof rx ry rz
    limits (-20.0 45.0)
           (-30.0 30.0)
           (-30.0 30.0)
  end
  begin
     id 14 
     name lowerneck
     direction 0.000989287 0.993907 0.110221   
     length 1.75428   
     axis 0 0 0   XYZ
    dof rx ry rz
    limits (-20.0 45.0)
           (-30.0 30.0)
           (-30.0 30.0)
  end
  begin
     id 15 
     name upperneck
     direction -0.0172474 0.994813 -0.100253   
     length 1.77058   
     axis 0 0 0   XYZ
    dof rx ry rz
    limits (-20.0 45.0)
           (-30.0 30.0)
           (-30.0 30.0)
  end
  begin
     id 16
     name head
     direction -0.00486455 0.99894 -0.0457663  
     length 1.77427  
     axis 0 0 0   XYZ
    dof rx ry rz
    limits (-20.0 45.0)
           (-30.0 30.0)
           (-30.0 30.0)
  end
  begin
     id 17 
     name lclavicle
     direction 0.927314 0.333734 -0.169441  
     length 3.97584  
     axis 0 0 0   XYZ
    dof ry rz
    limits (-20.0 10.0)
           (0.0 20.0)
  end
  begin
     id 18 
     name lhumerus
     direction 1 -4.48965e-011 -3.25313e-028   
     length 4.76468   
     axis 180 -30 -90   XYZ
    dof rx ry rz
    limits (-60.0 90.0)
           (-90.0 90.0)
           (-90.0 90.0)
  end
  begin
     id 19
     name lradius
     direction 1 -4.48969e-011 -2.8465e-028   
     length 3.52712   
     axis -180 -30 -90   XYZ
    dof rx
    limits (-10.0 170.0)
  end
  begin
     id 20
     name lwrist
     direction 1 -4.4896e-011 -7.78665e-028   
     length 1.76356   
     axis 1.91374e-015 90 90   XYZ
    dof ry
    limits (-180.0 0.0)
 end
  begin
     id 21 
     name lhand
     direction 1 -4.48959e-011 -1.55733e-027   
     length 0.859564   
     axis 9.9371e-016 90 90   XYZ
    dof rx rz
    limits (-90.0 90.0)
           (-45.0 45.0)
  end
  begin
     id 22 
     name lfingers
     direction 1 -4.48965e-011 -3.11466e-027   
     length 0.693002   
     axis 1.98742e-015 90 90   XYZ
    dof rx
    limits (0.0 90.0)
  end
  begin
     id 23
     name lthumb
     direction 0.707107 -6.34948e-011 0.707107   
     length 0.995017   
     axis -90 45 2.85299e-015   XYZ
    dof rx rz
    limits (-45.0 45.0)
           (-45.0 45.0)
  end
  begin
     id 24 
     name rclavicle
     direction -0.899388 0.348209 -0.264294   
     length 3.68366  
     axis 0 0 0   XYZ 
    dof ry rz
    limits (-10.0 20.0)
           (-20.0 0.0)
  end
  begin
     id 25 
     name rhumerus
     direction -1 -4.48965e-011 -3.01536e-027  
     length 4.90577   
     axis 180 30 90   XYZ
    dof rx ry rz
    limits (-90.0 60.0)
           (-90.0 90.0)
           (-90.0 90.0)
  end
  begin
     id 26 
     name rradius
     direction -1 -4.48966e-011 3.93291e-027   
     length 3.42692   
     axis -180 30 90   XYZ
    dof rx
    limits (-10.0 170.0)
  end
  begin
     id 27 
     name rwrist
     direction -1 -4.48969e-011 -7.78665e-028   
     length 1.71346   
     axis 1.91374e-015 -90 -90   XYZ
    dof ry
    limits (-180.0 0.0)
  end
  begin
     id 28
     name rhand
     direction -1 -4.48967e-011 -1.55733e-027   
     length 0.740957   
     axis 9.9371e-016 -90 -90   XYZ
    dof rx rz
    limits (-90.0 90.0)
           (-45.0 45.0)
  end
  begin
     id 29
     name rfingers
     direction -1 -4.48949e-011 -3.11466e-027   
     length 0.597378   
     axis 1.98742e-015 -90 -90   XYZ
    dof rx
    limits (0.0 90.0)
  end
  begin
     id 30
     name rthumb
     direction -0.707107 -6.34931e-011 0.707107   
     length 0.857719   
     axis -90 -45 -2.85299e-015   XYZ
    dof rx rz
    limits (-45.0 45.0)
           (-45.0 45.0)
  end
:hierarchy
  begin
    root lhipjoint rhipjoint lowerback
    lhipjoint lfemur
    lfemur ltibia
    ltibia lfoot
    lfoot ltoes
    rhipjoint rfemur
    rfemur rtibia
    rtibia rfoot
    rfoot rtoes
    lowerback upperback
    upperback thorax
    thorax lowerneck lclavicle rclavicle
    lowerneck upperneck
    upperneck head
    lclavicle lhumerus
    lhumerus lradius
    lradius lwrist
    lwrist lhand lthumb
    lhand lfingers
    rclavicle rhumerus
    rhumerus rradius
    rradius rwrist
    rwrist rhand rthumb
    rhand rfingers
  end

#!OML:ASF E:\I on waltz\AllaLogoMonkeySwing\Project 1\Capture day 1\Session 1\Subject1.ASF
:FULLY-SPECIFIED
:DEGREES
98
root 1.41854 6.57099 -0.839974 0.140018 7.35562 -1.97205
lowerback 43.8345 -1.54226 3.00065
upperback 12.5326 -0.426427 0.423379
thorax -6.49136 -0.109606 -0.913063
lowerneck -5.60946 -0.454243 -3.38437
upperneck -0.839122 -0.427965 3.48042
head 0.705001 -0.165997 1.65144
rclavicle 1.18277e-014 -1.10325e-014
rhumerus -29.9702 20.6068 -63.1549
rradius 132.841
rwrist 17.1699
rhand -27.7168 -36.9006
rfingers 7.12502
rthumb -1.11236 -66.8775
lclavicle 1.18277e-014 -1.10325e-014
lhumerus -37.3555 -30.4481 85.0243
lradius 136.463
lwrist -12.9451
lhand -26.9048 -38.4548
lfingers 7.12502
lthumb -0.328106 -8.47527
rfemur -128.78 -29.7144 37.7733
rtibia 138.34
rfoot -18.4361 2.20445
rtoes 18.2028
lfemur -122.951 15.9335 -28.238
ltibia 138.482
lfoot -25.6079 -14.4731
ltoes -16.0655
99
root 1.3894 6.61231 -0.926287 -1.22644 7.13561 -1.92492
lowerback 43.9186 -1.40153 2.78481
upperback 12.5533 -0.353256 0.36437
thorax -6.49106 -0.0772541 -0.895123
lowerneck -5.40732 -0.392622 -3.37271
upperneck -1.18818 -0.344951 3.51791
head 0.558096 -0.125628 1.66108
rclavicle -1.59028e-015 4.96962e-015
rhumerus -29.1623 19.6805 -64.255
rradius 131.424
rwrist 17.1028
rhand -26.7928 -36.2277
rfingers 7.12502
rthumb -0.219999 -66.2073
lclavicle -1.59028e-015 4.96962e-015
lhumerus -35.3495 -29.4201 84.6168
lradius 135.128
lwrist -14.0924
lhand -27.417 -36.6045
lfingers 7.12502
lthumb -0.822811 -6.62638
rfemur -126.8 -30.0288 37.301
rtibia 137.795
rfoot -18.448 2.54716
rtoes 18.3118
lfemur -121.107 16.7584 -27.9455
ltibia 137.868
lfoot -25.8267 -15.0775
ltoes -15.9498
100
root 1.36062 6.65775 -1.01344 -2.4729 6.90396 -1.91511
lowerback 43.7603 -1.30442 2.53678
upperback 12.6441 -0.35207 0.343308
thorax -6.34887 -0.0797355 -0.79281
lowerneck -5.48812 -0.304712 -3.3836
upperneck -1.24758 -0.222107 3.39698
head 0.54803 -0.0644477 1.62664
rclavicle 9.46712e-015 -1.2275e-014
rhumerus -28.0742 18.7973 -65.3862
rradius 129.788
rwrist 16.6206
rhand -25.7868 -35.3511
rfingers 7.12502
rthumb 0.751692 -65.3295
lclavicle 9.46712e-015 -1.2275e-014
lhumerus -33.4054 -28.1354 84.5063
lradius 133.77
lwrist -14.1197
lhand -27.3694 -34.9183
lfingers 7.12502
lthumb -0.776823 -4.94001
rfemur -124.797 -30.2023 36.8225
rtibia 137.209
rfoot -18.4256 2.72843
rtoes 18.3286
lfemur -119.347 17.5323 -27.6134
ltibia 137.216
lfoot -25.9895 -15.6528
ltoes -15.8736
101
root 1.33115 6.70587 -1.10433 -4.02953 6.62647 -1.82777
lowerback 44.0278 -1.13743 2.22685
upperback 12.659 -0.27866 0.310536
thorax -6.4042 -0.0511357 -0.697707
lowerneck -5.52676 -0.279596 -3.2247
upperneck -1.22969 -0.195948 3.18151
head 0.557172 -0.0537527 1.53008
rclavicle 4.47266e-016 4.60311e-015
rhumerus -27.1303 17.8544 -66.4533
rradius 127.959
rwrist 16.2199
rhand -24.8442 -34.2302
rfingers 7.12502
rthumb 1.66207 -64.2035
lclavicle 4.47266e-016 4.60311e-015
lhumerus -31.8053 -27.0396 84.6419
lradius 132.322
lwrist -13.424
lhand -26.7881 -33.4411
lfingers 7.12502
lthumb -0.215387 -3.4615
rfemur -122.361 -30.4661 36.0788
rtibia 136.629
rfoot -18.4537 3.09298
rtoes 18.935
lfemur -117.056 18.3625 -27.1912
ltibia 136.555
lfoot -26.0123 -16.3719
ltoes -14.7706
102
root 1.3028 6.74096 -1.19045 -5.84742 6.30725 -1.6744
lowerback 44.6278 -0.949661 1.85546
upperback 12.5633 -0.199281 0.279016
thorax -6.67031 -0.0231356 -0.571222
lowerneck -5.40464 -0.252293 -3.24469
upperneck -1.25917 -0.160803 3.12493
head 0.525791 -0.0375807 1.51561
rclavicle -1.82315e-014 -1.0812e-014
rhumerus -26.3696 17.2295 -67.3671
rradius 126.07
rwrist 16.0065
rhand -23.9164 -33.2013
rfingers 7.12502
rthumb 2.55811 -63.1657
lclavicle -1.82315e-014 -1.0812e-014
lhumerus -30.6455 -25.9808 84.9519
lradius 130.681
lwrist -13.2192
lhand -26.3899 -32.1388
lfingers 7.12502
lthumb 0.16913 -2.15911
rfemur -119.728 -30.8334 35.1612
rtibia 136.158
rfoot -18.6085 3.49494
rtoes 19.4852
lfemur -114.548 19.2393 -26.691
ltibia 135.983
lfoot -25.9434 -17.1611
ltoes -13.4521
103
root 1.277 6.75431 -1.26448 -7.63479 5.90454 -1.64491
lowerback 45.0232 -0.746455 1.69144
upperback 12.4676 -0.0255056 0.244953
thorax -6.87848 0.0528852 -0.594245
lowerneck -5.36355 -0.290232 -3.1868
upperneck -1.16185 -0.217534 3.05645
head 0.550454 -0.0673399 1.48261
rclavicle 2.32019e-015 -4.44159e-015
rhumerus -25.7055 16.775 -68.164
rradius 124.176
rwrist 15.9254
rhand -23.2014 -32.596
rfingers 7.12502
rthumb 3.24861 -62.551
lclavicle 2.32019e-015 -4.44159e-015
lhumerus -29.7214 -25.1886 85.3255
lradius 128.961
lwrist -13.5469
lhand -26.126 -31.0698
lfingers 7.12502
lthumb 0.424015 -1.09052
rfemur -117.26 -31.0173 34.4161
rtibia 135.83
rfoot -18.8175 3.6229
rtoes 19.7787
lfemur -112.369 20.2835 -26.087
ltibia 135.631
lfoot -26.0218 -17.7831
ltoes -12.9482
104
root 1.24346 6.76723 -1.34293 -10.1686 6.36764 0.194777
lowerback 46.1732 -0.351712 -0.0101413
upperback 12.5445 -0.294125 -0.0615076
thorax -7.0868 -0.078166 0.0565
lowerneck -5.57375 -0.360826 -3.23208
upperneck -0.795139 -0.309597 3.04546
head 0.704327 -0.112349 1.4875
rclavicle 4.44897e-015 -7.61691e-015
rhumerus -24.8784 16.6052 -68.7075
rradius 122.297
rwrist 16.096
rhand -22.7156 -32.2451
rfingers 7.12502
rthumb 3.7177 -62.1924
lclavicle 4.44897e-015 -7.61691e-015
lhumerus -28.8965 -24.5247 85.7821
lradius 127.258
lwrist -14.1367
lhand -26.0094 -30.347
lfingers 7.12502
lthumb 0.536623 -0.367886
rfemur -114.575 -33.3462 31.8921
rtibia 135.721
rfoot -19.0849 4.77871
rtoes 20.3708
lfemur -107.932 19.5795 -26.4341
ltibia 135.056
lfoot -26.5 -17.0679
ltoes -12.8414
105
root 1.22984 6.74642 -1.39771 -11.4357 5.11802 -0.952992
lowerback 45.5482 -0.153649 0.777317
upperback 12.4903 0.281076 0.174484
thorax -6.98917 0.181292 -0.331608
lowerneck -5.75586 -0.401617 -3.38852
upperneck -0.450853 -0.354882 3.06603
head 0.846516 -0.133779 1.52306
rclavicle -3.04389e-016 3.12465e-015
rhumerus -23.9352 16.7546 -69.0393
rradius 120.485
rwrist 16.4469
rhand -22.4552 -32.0029
rfingers 7.12502
rthumb 3.96921 -61.9457
lclavicle -3.04389e-016 3.12465e-015
lhumerus -28.043 -23.9045 86.2447
lradius 125.533
lwrist -15.266
lhand -26.1011 -29.4721
lfingers 7.12502
lthumb 0.448115 0.507168
rfemur -112.564 -31.6009 32.3633
rtibia 135.426
rfoot -18.6797 3.91645
rtoes 20.7178
lfemur -107.621 22.3294 -25.3295
ltibia 135.176
lfoot -26.5445 -18.4482
ltoes -12.6917
